Coordinates
version=1
nRows=9
nColumns=24
inDegrees=yes

Units are S.I. units (second, meters, Newtons, ...)
Angles are in degrees.

endheader
time	pelvis_tilt	pelvis_list	pelvis_rotation	pelvis_tx	pelvis_ty	pelvis_tz	hip_flexion_r	hip_adduction_r	hip_rotation_r	knee_angle_r	ankle_angle_r	subtalar_angle_r	mtp_angle_r	hip_flexion_l	hip_adduction_l	hip_rotation_l	knee_angle_l	ankle_angle_l	subtalar_angle_l	mtp_angle_l	lumbar_extension	lumbar_bending	lumbar_rotation
      1.41633333	      0.94179767	     10.46745287	     -3.51240355	      0.34740403	      1.00510505	      0.29558776	     17.39692451	    -13.72427661	      0.91814910	    -75.72707179	    -10.13972980	    -12.23852243	      6.36715583	      7.78942092	     16.47997677	      1.27394019	    -10.23604679	      0.46614161	    -19.67714135	     -3.11721932	    -13.47678641	     -6.35570170	     -1.88444276
      1.42050000	      0.92537895	     10.29680692	     -3.42965670	      0.35226157	      1.00607681	      0.29520809	     18.04164295	    -13.43539036	      0.94500151	    -75.58320351	     -9.66822859	    -12.42850604	      6.32680796	      7.21556669	     16.33670430	      1.43857902	     -9.74924703	      0.50478358	    -19.52517589	     -3.11222984	    -13.47150011	     -6.15656620	     -1.96606030
      1.42466667	      0.98039552	     10.09396955	     -3.30309294	      0.35706526	      1.00712780	      0.29476075	     18.56766739	    -13.13251965	      0.90154662	    -75.36764119	     -9.17627188	    -12.57703019	      6.20422070	      6.56011786	     16.17187062	      1.69097343	     -9.27010609	      0.49594562	    -19.44829253	     -3.10527233	    -13.59695911	     -5.82101641	     -2.30837546
      1.42883333	      1.03575123	      9.93073058	     -3.19434835	      0.36193961	      1.00813633	      0.29433075	     19.08630316	    -12.87413406	      0.87530693	    -75.09540840	     -8.74308435	    -12.72021331	      6.01100599	      5.87801378	     16.04551407	      1.95213064	     -8.72867454	      0.49785649	    -19.40305969	     -3.09683773	    -13.66583741	     -5.56958085	     -2.68667045
      1.43300000	      1.04628796	      9.73892164	     -3.06774956	      0.36676824	      1.00905502	      0.29389480	     19.63239518	    -12.57734393	      0.83305132	    -74.76632328	     -8.25807378	    -12.87418718	      5.89637183	      5.27599832	     15.87850404	      2.15420400	     -8.25357268	      0.49616755	    -19.27569593	     -3.09250786	    -13.72015814	     -5.29203283	     -2.86752028
      1.43716667	      1.10085601	      9.56143696	     -2.94529376	      0.37164599	      1.00997628	      0.29345746	     20.11203348	    -12.30890750	      0.77640013	    -74.37890213	     -7.81302031	    -12.99031900	      5.70760310	      4.60239140	     15.72883130	      2.39074469	     -7.73281538	      0.52518173	    -19.19364054	     -3.08740381	    -13.78306490	     -5.02760607	     -3.21185507
      1.44133333	      1.10267144	      9.39529942	     -2.81283286	      0.37650881	      1.01077753	      0.29302570	     20.63782575	    -12.04690628	      0.71965295	    -73.94744846	     -7.30331480	    -13.12837086	      5.63468298	      4.01396730	     15.58016682	      2.54937043	     -7.26065338	      0.52559797	    -19.03756901	     -3.08563982	    -13.79521814	     -4.80162843	     -3.34073871
      1.44550000	      1.19738707	      9.22456933	     -2.68906340	      0.38136144	      1.01166697	      0.29258632	     21.04211799	    -11.79332942	      0.65188775	    -73.44843539	     -6.83696271	    -13.18884416	      5.42129814	      3.29513007	     15.43346308	      2.80713458	     -6.72982577	      0.54800467	    -18.95464964	     -3.08590177	    -13.93254189	     -4.52376552	     -3.74062157
      1.44966667	      1.19217945	      9.03927343	     -2.54631394	      0.38619893	      1.01237986	      0.29216375	     21.53639360	    -11.50557269	      0.58753048	    -72.90077443	     -6.31303607	    -13.27426764	      5.31947713	      2.72089657	     15.25753378	      2.98945915	     -6.27225374	      0.55702748	    -18.80786523	     -3.08671632	    -13.96259181	     -4.26968044	     -3.88997845
